<svg width="106" height="126" viewBox="0 0 106 126" fill="none" xmlns="http://www.w3.org/2000/svg">
<g clip-path="url(#clip0_453_537)">
<path d="M0.519916 93.8807C0.347149 93.7096 0.211741 93.5048 0.122175 93.2793C0.0326079 93.0537 -0.00922496 92.8123 -0.000649548 92.5699C-0.0100574 92.3324 0.0315445 92.0956 0.121296 91.8753C0.211047 91.655 0.346925 91.4562 0.519916 91.2922C0.691994 91.1242 0.896503 90.9927 1.12113 90.9057C1.34575 90.8186 1.58581 90.7777 1.82677 90.7855C2.06538 90.7763 2.30332 90.816 2.5258 90.9023C2.74827 90.9886 2.95047 91.1195 3.11984 91.2869C3.28921 91.4544 3.4221 91.6547 3.51021 91.8754C3.59833 92.0961 3.63981 92.3325 3.63202 92.5699C3.64332 93.0567 3.46009 93.528 3.12254 93.8807C2.95346 94.0503 2.75134 94.1837 2.5285 94.2727C2.30566 94.3618 2.06684 94.4045 1.82677 94.3984C1.58503 94.4047 1.34451 94.3621 1.11984 94.2731C0.895176 94.1841 0.691066 94.0506 0.519916 93.8807M3.23333 109.445H0.364848V96.1387H3.23333V109.445Z" fill="#43277E"/>
<path d="M11.7074 106.812L12.4273 106.68L12.981 106.569V109.246C12.0504 109.475 11.0931 109.579 10.1347 109.555C9.3075 109.614 8.48245 109.413 7.7757 108.982C7.26278 108.632 6.89026 108.113 6.72355 107.517C6.5463 106.796 6.46443 106.056 6.47993 105.314V98.5836H4.38672V96.1163H6.47993V92.6025H9.34835V96.1383H12.6709V98.6057H9.34835V105.215C9.3183 105.658 9.41425 106.101 9.62523 106.492C9.77062 106.633 9.94501 106.74 10.1363 106.807C10.3275 106.873 10.5311 106.897 10.7327 106.878C11.0405 106.881 11.348 106.859 11.652 106.812" fill="#43277E"/>
<path d="M25.7052 97.2947C26.5695 98.3505 27.0008 99.6921 26.9124 101.051V109.444H24.0329V102.031C24.1017 101.184 23.831 100.345 23.2798 99.6959C23 99.4367 22.6702 99.2366 22.3104 99.1078C21.9506 98.9791 21.5683 98.9243 21.1865 98.9469C20.7002 98.9209 20.2144 99.0067 19.7669 99.1977C19.3193 99.3888 18.9221 99.6799 18.6061 100.048C17.8975 101.07 17.5613 102.302 17.6536 103.54V109.389H14.7852V90.9941H17.6536V99.2003C18.03 98.2079 18.7173 97.3622 19.6139 96.788C20.4668 96.2569 21.454 95.978 22.4602 95.9839C23.0645 95.9534 23.6683 96.0549 24.2289 96.2814C24.7895 96.5079 25.2934 96.8537 25.7052 97.2947" fill="#43277E"/>
<path d="M37.0017 96.1386V98.8703C35.8461 98.8193 34.6915 98.9914 33.6016 99.377C33.2389 99.5118 32.9065 99.7164 32.6233 99.9791C32.3401 100.242 32.1118 100.558 31.9515 100.908C31.6062 101.788 31.4477 102.729 31.4863 103.673V109.445H28.6621V96.1386H31.4863V99.1016C31.7328 98.5178 32.0449 97.9635 32.4166 97.4494C32.8273 96.9957 33.3563 96.664 33.945 96.4911C34.9369 96.2031 35.9692 96.0766 37.0017 96.1166" fill="#43277E"/>
<path d="M49.2281 100.996V108.563C48.3041 108.913 47.3467 109.167 46.3707 109.323C45.3067 109.51 44.2282 109.602 43.1478 109.599C41.6835 109.69 40.2263 109.332 38.9725 108.574C38.5012 108.256 38.1202 107.822 37.8661 107.314C37.612 106.807 37.4934 106.243 37.5217 105.677C37.4954 105.086 37.6125 104.497 37.8631 103.96C38.1137 103.424 38.4903 102.955 38.9614 102.593C40.2772 101.754 41.8334 101.367 43.3915 101.492H46.3486V101.304C46.3953 100.92 46.346 100.529 46.205 100.168C46.064 99.807 45.8356 99.486 45.54 99.2335C44.7008 98.7788 43.7456 98.5797 42.7934 98.6607C42.2225 98.6544 41.6521 98.695 41.0879 98.7819C40.7076 98.8512 40.3362 98.962 39.9804 99.1123C39.6814 99.2445 39.194 99.4758 38.5185 99.8283V97.2508C39.1394 96.833 39.8237 96.5168 40.5452 96.3145C41.3968 96.108 42.2715 96.0118 43.1478 96.0282C47.2567 96.0282 49.3056 97.6914 49.3056 100.996M46.3042 106.812V103.794H42.9817C42.3108 103.722 41.6378 103.907 41.099 104.311C40.9282 104.477 40.7938 104.676 40.7042 104.896C40.6146 105.116 40.5718 105.352 40.5784 105.589C40.571 105.832 40.6287 106.072 40.7454 106.285C40.8622 106.498 41.034 106.676 41.243 106.801C41.8126 107.119 42.4622 107.268 43.1146 107.23C44.2085 107.272 45.3018 107.131 46.3486 106.812" fill="#43277E"/>
<path d="M38.5079 60.1746C38.771 60.1805 39.0325 60.1327 39.2763 60.0341C39.5201 59.9356 39.7411 59.7885 39.9255 59.6018C40.1129 59.4268 40.2618 59.2151 40.3628 58.9801C40.4639 58.745 40.5148 58.4916 40.5125 58.236C40.5125 57.7072 40.3013 57.2001 39.9253 56.8262C39.5494 56.4523 39.0395 56.2423 38.5079 56.2423C38.2509 56.2399 37.9961 56.2906 37.7597 56.3911C37.5234 56.4916 37.3105 56.6397 37.1346 56.8261C36.95 57.0118 36.804 57.2319 36.7052 57.4739C36.6064 57.7158 36.5566 57.9748 36.5587 58.236C36.5569 58.4905 36.607 58.7428 36.706 58.9776C36.8049 59.2123 36.9508 59.4247 37.1346 59.6018C37.3111 59.7867 37.5243 59.9332 37.7607 60.0318C37.9972 60.1304 38.2516 60.179 38.5079 60.1746" fill="#43277E"/>
<path d="M35.938 64.6687C36.2037 64.674 36.4676 64.6249 36.7133 64.5245C36.9591 64.4241 37.1815 64.2744 37.3667 64.0849C37.5595 63.9042 37.7123 63.6855 37.8152 63.4427C37.9182 63.1999 37.9691 62.9385 37.9648 62.675C37.9695 62.4158 37.9197 62.1584 37.8186 61.9194C37.7175 61.6804 37.5674 61.4651 37.3777 61.2871C37.1933 61.1004 36.9724 60.9533 36.7285 60.8548C36.4847 60.7563 36.2233 60.7085 35.9602 60.7143C35.4373 60.7143 34.9359 60.9209 34.5662 61.2886C34.1965 61.6563 33.9888 62.155 33.9888 62.675C33.9829 62.9367 34.0309 63.1968 34.13 63.4393C34.229 63.6817 34.377 63.9015 34.5647 64.0849C34.7385 64.2741 34.9509 64.424 35.1878 64.5247C35.4247 64.6254 35.6805 64.6745 35.938 64.6687Z" fill="#43277E"/>
<path d="M46.9245 85.0468C47.5336 85.0468 48.3089 85.0468 49.2392 85.19V83.4607C48.4736 83.3377 47.6999 83.2715 46.9245 83.2624C45.957 83.2047 45.0057 83.5294 44.2776 84.1656C43.9421 84.5117 43.683 84.9236 43.5171 85.3751C43.3512 85.8266 43.282 86.3076 43.314 86.7872C43.3114 87.4398 43.5566 88.0692 44.0007 88.5496H42.0293V90.29H49.2392V88.5496H46.9245C46.6982 88.5587 46.4727 88.5179 46.264 88.4304C46.0553 88.3428 45.8687 88.2105 45.7173 88.0429C45.4142 87.6951 45.2523 87.2474 45.2632 86.7872C45.247 86.5556 45.278 86.323 45.3541 86.1035C45.4302 85.884 45.5499 85.682 45.7062 85.5095C45.8655 85.3519 46.0562 85.2293 46.266 85.1496C46.4759 85.0699 46.7002 85.0349 46.9245 85.0468" fill="#43277E"/>
<path d="M10.2007 77.5345C9.64599 76.9107 9.35619 76.0973 9.39219 75.2654C9.37791 74.908 9.43956 74.5515 9.57315 74.2194C9.70673 73.8872 9.90919 73.5868 10.1674 73.3378C10.7319 72.8366 11.4716 72.5756 12.2274 72.6108C13.2076 72.6112 14.1858 72.696 15.1512 72.8641V70.0553C14.1928 69.8336 13.2113 69.7263 12.2274 69.7359C10.6424 69.6443 9.08302 70.1653 7.8749 71.1899C7.3373 71.7195 6.91901 72.3568 6.64788 73.0594C6.37674 73.7621 6.25891 74.514 6.30219 75.2654C6.26441 76.416 6.6593 77.5392 7.4097 78.4157H4.17578V81.2685H15.9597V78.4157H12.1831C11.8007 78.4274 11.4205 78.3544 11.07 78.202C10.7194 78.0496 10.4074 77.8216 10.1564 77.5345" fill="#43277E"/>
<path d="M47.8113 59.833H44.666V81.2681H47.8113V59.833Z" fill="#43277E"/>
<path d="M43.0271 62.6751C43.0355 62.4184 42.9906 62.1627 42.8953 61.9239C42.8001 61.6852 42.6565 61.4684 42.4734 61.2873C42.2961 61.1004 42.0811 60.9528 41.8426 60.8541C41.604 60.7554 41.3473 60.7078 41.089 60.7145C40.8252 60.7107 40.5634 60.7605 40.3196 60.8609C40.0758 60.9613 39.8552 61.1101 39.6713 61.2983C39.4826 61.4745 39.3328 61.688 39.2318 61.9251C39.1307 62.1622 39.0805 62.4176 39.0844 62.6751C39.079 62.9358 39.1262 63.1948 39.2232 63.437C39.3202 63.6792 39.4651 63.8995 39.6492 64.0851C39.8335 64.2696 40.0526 64.416 40.294 64.5159C40.5354 64.6158 40.7943 64.6673 41.0557 64.6673C41.3172 64.6673 41.5761 64.6158 41.8175 64.5159C42.0589 64.416 42.278 64.2696 42.4623 64.0851C42.6464 63.8995 42.7913 63.6792 42.8883 63.437C42.9853 63.1948 43.0326 62.9358 43.0271 62.6751Z" fill="#43277E"/>
<path d="M22.2274 59.833H19.082V81.2681H22.2274V59.833Z" fill="#43277E"/>
<path d="M37.7665 76.4881C37.7874 76.7549 37.7519 77.0231 37.6622 77.2754C37.5726 77.5277 37.4308 77.7585 37.246 77.9531C36.7786 78.3004 36.1993 78.4651 35.618 78.4157H30.7228V68.2599H27.5441V81.1804C27.5774 82.015 27.4688 82.8492 27.223 83.6478C27.044 84.1546 26.6749 84.5729 26.193 84.8154C25.5681 85.0528 24.9011 85.1614 24.2327 85.1348C23.0915 85.1811 21.9548 84.9663 20.9102 84.5069V87.3818C20.9102 87.4589 21.331 87.5801 22.1727 87.7563C22.8489 87.9108 23.5391 87.9957 24.2327 88.0097C25.128 88.091 26.0305 87.986 26.8828 87.7016C27.7351 87.4171 28.5185 86.9594 29.1833 86.3574C30.3238 84.9151 30.8737 83.0973 30.7228 81.2685H36.9691C38.02 81.326 39.0536 80.9833 39.8597 80.3102C40.2318 79.9639 40.5236 79.5411 40.7148 79.0713C40.9061 78.6014 40.9923 78.0958 40.9673 77.5896V67.7422H37.8219L37.7665 76.4881Z" fill="#43277E"/>
<path d="M34.8544 120.845C34.6686 120.836 34.4829 120.865 34.3093 120.932C34.1356 120.998 33.978 121.1 33.8465 121.231C33.6124 121.551 33.4863 121.937 33.4863 122.332C33.4863 122.728 33.6124 123.114 33.8465 123.434C34.1213 123.681 34.4785 123.818 34.8488 123.818C35.2192 123.818 35.5763 123.681 35.8511 123.434C36.0852 123.114 36.2113 122.728 36.2113 122.332C36.2113 121.937 36.0852 121.551 35.8511 121.231C35.7213 121.101 35.5655 121 35.3938 120.933C35.2221 120.867 35.0384 120.837 34.8544 120.845M35.3306 123.048C35.2733 123.119 35.2006 123.175 35.1181 123.213C35.0355 123.252 34.9454 123.271 34.8544 123.269C34.7615 123.272 34.6691 123.254 34.5845 123.216C34.4999 123.178 34.4255 123.12 34.3671 123.048C34.239 122.852 34.1769 122.621 34.1898 122.388C34.1745 122.15 34.2367 121.915 34.3671 121.716C34.4236 121.642 34.4978 121.583 34.5828 121.544C34.6679 121.506 34.7612 121.489 34.8544 121.495C34.9457 121.491 35.0368 121.509 35.1197 121.547C35.2027 121.585 35.2751 121.643 35.3306 121.716C35.461 121.915 35.5231 122.15 35.5078 122.388C35.5207 122.621 35.4587 122.852 35.3306 123.048" fill="#43277E"/>
<path d="M34.3004 120.195C34.3575 120.197 34.4144 120.187 34.4675 120.166C34.5206 120.145 34.5688 120.113 34.6092 120.073C34.6496 120.033 34.6814 119.985 34.7025 119.932C34.7237 119.879 34.7339 119.823 34.7323 119.766C34.7346 119.712 34.7248 119.659 34.7038 119.609C34.6827 119.56 34.6508 119.515 34.6105 119.479C34.5723 119.439 34.5259 119.407 34.4743 119.386C34.4227 119.366 34.3672 119.356 34.3115 119.358C34.2556 119.354 34.1996 119.363 34.1478 119.384C34.0959 119.405 34.0496 119.438 34.0124 119.479C33.9738 119.517 33.9431 119.561 33.9221 119.61C33.9012 119.66 33.8905 119.712 33.8906 119.766C33.8905 119.88 33.934 119.991 34.0124 120.074C34.0497 120.113 34.0945 120.143 34.144 120.164C34.1935 120.185 34.2467 120.196 34.3004 120.195" fill="#43277E"/>
<path d="M35.3965 120.196C35.5064 120.177 35.6052 120.118 35.6734 120.03C35.7518 119.947 35.7953 119.836 35.7952 119.722C35.7953 119.668 35.7846 119.616 35.7637 119.566C35.7427 119.517 35.712 119.473 35.6734 119.436C35.6362 119.394 35.5899 119.361 35.538 119.34C35.4862 119.319 35.4301 119.31 35.3743 119.314C35.3187 119.313 35.2634 119.323 35.2119 119.344C35.1604 119.364 35.1139 119.396 35.0753 119.436C35.035 119.471 35.0031 119.516 34.982 119.565C34.961 119.615 34.9512 119.668 34.9534 119.722C34.952 119.778 34.9618 119.833 34.9822 119.886C35.0027 119.938 35.0335 119.985 35.0728 120.025C35.112 120.065 35.1589 120.097 35.2107 120.119C35.2624 120.14 35.3181 120.152 35.3743 120.152" fill="#43277E"/>
<path d="M48.8301 121.253C48.6836 121.114 48.5094 121.006 48.3186 120.938C48.1279 120.87 47.9248 120.842 47.7226 120.857C47.5187 120.832 47.312 120.857 47.1194 120.928C46.9269 120.998 46.754 121.114 46.6151 121.264C46.3744 121.579 46.2564 121.971 46.2829 122.366C46.2871 122.654 46.3167 122.941 46.3714 123.225H44.9206V120.912H44.245V123.181H43.4919C43.3669 123.196 43.2406 123.164 43.1375 123.093C43.0971 123.05 43.0664 123 43.0473 122.945C43.0281 122.89 43.0212 122.831 43.0268 122.773V119.237H42.3622V123.015C42.3571 123.121 42.3742 123.226 42.4123 123.325C42.4504 123.424 42.5088 123.513 42.5837 123.588C42.7587 123.728 42.9797 123.799 43.2039 123.786H47.7115C47.912 123.802 48.1136 123.777 48.3039 123.712C48.4943 123.648 48.6696 123.546 48.819 123.412C48.9616 123.268 49.071 123.095 49.1399 122.905C49.2087 122.715 49.2352 122.512 49.2177 122.31C49.231 122.109 49.2024 121.908 49.1338 121.718C49.0652 121.529 48.9581 121.355 48.819 121.209M48.3096 122.916C48.2368 122.991 48.1487 123.049 48.0513 123.087C47.9538 123.125 47.8493 123.142 47.7448 123.137H47.202C47.1855 123.036 47.1633 122.937 47.1356 122.839C47.0797 122.65 47.0536 122.453 47.0581 122.255C47.0581 121.694 47.2907 121.407 47.7448 121.407C47.852 121.405 47.9583 121.427 48.056 121.47C48.1537 121.514 48.2403 121.579 48.3096 121.661C48.4625 121.842 48.5415 122.074 48.5311 122.31C48.5403 122.534 48.4607 122.751 48.3096 122.916" fill="#43277E"/>
<path d="M44.622 124.436C44.5683 124.435 44.5151 124.446 44.4656 124.467C44.4161 124.488 44.3714 124.518 44.3341 124.557C44.2917 124.596 44.2581 124.644 44.2352 124.697C44.2123 124.75 44.2007 124.807 44.2012 124.865C44.201 124.919 44.2117 124.971 44.2327 125.021C44.2536 125.07 44.2843 125.114 44.323 125.152C44.4034 125.228 44.5106 125.271 44.622 125.271C44.7335 125.271 44.8406 125.228 44.921 125.152C44.9614 125.116 44.9932 125.071 45.0143 125.022C45.0354 124.972 45.0452 124.919 45.0429 124.865C45.0472 124.752 45.0075 124.642 44.9321 124.557C44.8479 124.479 44.7371 124.435 44.622 124.436Z" fill="#43277E"/>
<path d="M40.1036 120.856C39.7892 120.861 39.4766 120.905 39.1733 120.988V121.605C39.4759 121.517 39.7886 121.469 40.1036 121.462C40.2115 121.458 40.319 121.478 40.4185 121.519C40.5179 121.561 40.6071 121.624 40.6795 121.704C40.8307 121.869 40.9102 122.087 40.901 122.31V123.18H38.9961V123.786H41.5323V122.31C41.5469 122.109 41.5189 121.907 41.4503 121.717C41.3816 121.527 41.2737 121.354 41.1336 121.208C40.8277 120.944 40.4302 120.81 40.0261 120.834" fill="#43277E"/>
<path d="M37.887 123.775C37.8944 123.95 37.8719 124.125 37.8206 124.293C37.8032 124.348 37.7746 124.399 37.7365 124.443C37.6984 124.486 37.6516 124.522 37.5991 124.546C37.4685 124.596 37.329 124.619 37.1893 124.612C36.9459 124.623 36.7034 124.578 36.4805 124.48V125.097C36.5655 125.134 36.6548 125.16 36.7463 125.174C36.892 125.205 37.0403 125.224 37.1893 125.229C37.3885 125.252 37.5904 125.233 37.7814 125.172C37.9724 125.111 38.1481 125.011 38.2968 124.877C38.5383 124.562 38.6528 124.169 38.618 123.775V121.021H37.887V123.775Z" fill="#43277E"/>
<path d="M31.054 117.023H30.5113C30.4585 117.028 30.4053 117.021 30.356 117.001C30.3068 116.981 30.263 116.95 30.2283 116.91C30.1936 116.87 30.169 116.823 30.1566 116.772C30.1441 116.72 30.1443 116.667 30.1569 116.616C30.1569 116.494 30.3119 116.428 30.4781 116.428C30.6643 116.44 30.8441 116.5 30.9986 116.605V116.065C30.8256 115.982 30.6368 115.937 30.4449 115.933C29.9133 115.933 29.6142 116.197 29.6585 116.671C29.6613 116.749 29.6882 116.825 29.7358 116.888C29.7833 116.951 29.8491 116.998 29.9243 117.023H29.5367V117.53H31.054V117.023ZM11.3956 120.273C12.0823 120.273 12.3924 120.658 12.3924 121.517V122.762H11.6836C10.6868 122.762 10.2992 122.409 10.2992 121.495C10.282 121.341 10.2979 121.184 10.3458 121.036C10.3937 120.888 10.4725 120.752 10.5771 120.637C10.6817 120.521 10.8098 120.429 10.9527 120.366C11.0957 120.304 11.2504 120.272 11.4067 120.273M20.8316 121.517C20.8316 120.658 21.1639 120.273 21.8284 120.273C21.9847 120.272 22.1394 120.304 22.2824 120.366C22.4253 120.429 22.5533 120.521 22.6579 120.637C22.7625 120.752 22.8414 120.888 22.8893 121.036C22.9372 121.184 22.9531 121.341 22.9359 121.495C22.9359 122.409 22.5704 122.762 21.6069 122.762H20.8316V121.517ZM9.84509 123.335C10.4924 123.714 11.2482 123.869 11.9937 123.775H12.4145C12.4145 124.568 11.9494 124.877 11.1298 124.877C10.6542 124.873 10.1811 124.807 9.72328 124.678V125.78C10.2092 125.872 10.7019 125.923 11.1963 125.934C12.78 125.934 13.6217 125.185 13.6439 123.731H21.2746C23.1685 123.731 24.1652 123.18 24.1652 121.407C24.1662 121.102 24.1036 120.801 23.9814 120.521C23.8591 120.242 23.6799 119.991 23.4551 119.784C23.2303 119.576 22.9647 119.418 22.6752 119.318C22.3856 119.219 22.0785 119.18 21.773 119.204C21.4792 119.171 21.1817 119.206 20.9039 119.307C20.6262 119.408 20.3758 119.571 20.1727 119.785C19.9696 119.999 19.8194 120.257 19.7338 120.538C19.6483 120.82 19.6298 121.117 19.6798 121.407V122.773H17.797C18.0388 122.431 18.1667 122.023 18.1625 121.605C18.1625 120.614 17.6752 119.402 15.7592 119.402H15.5931L17.8081 116.99H16.3794L14.1644 119.402V120.427H15.8257C15.9814 120.417 16.1374 120.441 16.2834 120.495C16.4294 120.55 16.5622 120.634 16.673 120.744C16.7839 120.853 16.8702 120.984 16.9265 121.129C16.9828 121.273 17.0077 121.428 16.9996 121.583C16.9996 122.431 16.5566 122.685 15.5377 122.685H13.6107V121.319C13.6611 121.028 13.6425 120.73 13.5563 120.447C13.4702 120.165 13.3189 119.906 13.1145 119.692C12.9101 119.478 12.6582 119.315 12.379 119.215C12.0998 119.115 11.801 119.081 11.5064 119.116C11.1924 119.089 10.8763 119.129 10.5792 119.233C10.2821 119.337 10.0107 119.504 9.78324 119.72C9.55577 119.937 9.3774 120.2 9.26011 120.491C9.14282 120.782 9.08931 121.094 9.10308 121.407C9.07057 121.747 9.12331 122.091 9.25666 122.406C9.39001 122.721 9.59981 122.999 9.86726 123.213M30.91 117.915H29.8025V123.654H30.91V117.915ZM25.3724 124.689V125.791C25.679 125.851 25.9903 125.884 26.3027 125.89C27.9086 125.89 28.7171 125.141 28.7171 123.621V119.579H27.4878V123.632C27.5 123.784 27.4804 123.937 27.4303 124.081C27.3802 124.225 27.3006 124.357 27.1965 124.469C27.0924 124.58 26.9661 124.669 26.8256 124.73C26.6851 124.791 26.5334 124.822 26.3802 124.822C26.0338 124.825 25.6881 124.788 25.3503 124.712M26.3802 116.913H25.2727V123.687H26.3802V116.913Z" fill="#43277E"/>
<path d="M96.6407 41.5262C94.308 40.693 91.8247 40.3589 89.3533 40.5459C86.5027 40.6331 83.6612 40.9091 80.8476 41.372C77.968 41.8126 74.712 42.4735 71.1568 43.3106C71.0682 44.1257 71.0018 44.8527 70.9575 45.2713C70.8467 46.1525 70.736 47.0006 70.6363 47.8047C73.851 48.5179 77.1331 48.8871 80.4267 48.9062C84.1453 49.0283 87.8649 48.6953 91.5018 47.9149C93.0472 47.5913 94.5543 47.1077 95.9983 46.4719C97.6485 45.7009 98.6232 44.8307 98.6232 43.9605C98.5881 43.4009 98.3813 42.8654 98.0308 42.4262C97.6803 41.987 97.2029 41.6652 96.6629 41.5042M69.5177 22.1068C69.1966 14.4625 68.0669 8.06278 65.1431 7.28072C64.3866 7.11253 63.594 7.23865 62.928 7.6332C60.3824 8.93374 58.4273 11.1459 57.4569 13.8236C57.1068 14.7379 56.84 15.6816 56.6595 16.6434C56.3268 18.4597 56.1857 20.3055 56.2387 22.1509C56.4158 26.1831 57.0209 30.1854 58.0439 34.0911C65.6636 37.3956 66.5607 41.8016 60.8681 41.1737C61.3564 41.9604 61.9202 42.6982 62.5515 43.3767L62.7065 43.5309C64.9215 42.9471 67.0037 42.4294 69.0637 41.9117C69.1412 40.8102 69.1966 39.7748 69.2298 39.136C69.5177 33.9589 69.7392 27.7245 69.5177 22.1619M53.0269 36.1068C52.6083 36.6948 52.3945 37.4026 52.4178 38.1226C54.0126 38.3539 55.6739 38.6293 57.4126 38.9707C56.9271 37.8672 56.5019 36.7384 56.139 35.5891C55.625 35.369 55.0583 35.3008 54.5064 35.3926C53.9545 35.4844 53.4408 35.7324 53.0269 36.1068M38.74 39.929C35.9712 40.5459 34.6533 41.5813 34.6533 42.6497C34.6533 43.7182 35.7608 44.5773 37.7432 45.2823C40.4605 46.1284 43.3044 46.5011 46.1493 46.3838C47.434 46.3838 48.8184 46.2847 50.3024 46.1305C49.8108 44.3272 49.481 42.4842 49.3167 40.623C49.3167 40.2705 49.3167 39.94 49.3167 39.6206C48.2092 39.5325 47.1017 39.4774 46.1271 39.4554C43.6658 39.3525 41.2008 39.5411 38.7843 40.0172M59.9599 39.5655C65.2317 40.5899 61.0674 37.8252 58.8524 36.7237C59.1612 37.6931 59.5312 38.6423 59.9599 39.5655ZM54.2895 45.6017C56.2498 45.2603 58.354 44.8087 60.5801 44.2138L60.4583 44.0707C59.6389 43.039 58.9195 41.9326 58.3097 40.7662V40.7662C56.2608 40.4027 54.3559 40.1163 52.5839 39.896C52.5839 40.1824 52.6946 40.4908 52.7611 40.8102C53.1497 42.4274 53.6568 44.0141 54.2784 45.5577M59.7052 55.394C62.1196 58.335 64.9769 59.8 66.9483 54.7221C67.5766 53.07 68.0295 51.357 68.2995 49.6112V49.6112C66.008 48.7601 63.9051 47.4731 62.1085 45.822C59.635 46.5564 57.2982 47.1402 55.0979 47.5734C56.3183 50.3495 57.8608 52.9742 59.6941 55.394M68.6207 47.287C68.7203 46.56 68.7979 45.8 68.8865 44.9849C68.8865 44.6434 68.8865 44.291 68.964 43.9495C67.5353 44.313 66.0402 44.7095 64.5339 45.1281C65.7901 46.061 67.1786 46.8035 68.6539 47.3311M105.944 44.8858C105.634 46.2957 104.05 47.6395 101.602 48.774C99.5457 49.7034 97.3912 50.4017 95.1788 50.8559C90.2795 51.9216 85.2533 52.2924 80.2495 51.9574C76.8776 51.7802 73.5353 51.2373 70.2819 50.3382V50.3382C69.8781 52.9281 69.2367 55.4758 68.366 57.9495C65.4975 65.66 61.3664 64.2721 57.8113 60.3728C54.8195 56.8173 52.4904 52.7587 50.9337 48.3885C48.1528 48.8366 45.3441 49.0942 42.5277 49.1596C38.7631 49.3487 34.9982 48.7908 31.4526 47.5183C28.8167 46.4168 27.4766 44.8968 27.4766 43.3657C27.4766 41.6253 29.2265 39.8629 32.7816 38.7394C35.828 37.8567 38.9894 37.4298 42.1622 37.4727C44.5815 37.4573 46.9999 37.5786 49.4054 37.8362C49.4949 36.7063 49.9058 35.6251 50.5903 34.719C51.2091 34.0704 51.9937 33.6016 52.86 33.3629C53.7264 33.1242 54.6416 33.1246 55.5077 33.3641V33.3641C54.4537 29.7406 53.7418 26.0271 53.3813 22.2721C53.173 19.9502 53.2138 17.6129 53.5031 15.2996C53.6774 13.9477 53.9702 12.6134 54.3781 11.3122C55.6281 7.1292 58.4421 3.58153 62.2414 1.39874C63.47 0.508177 64.9413 0.00891094 66.461 -0.0332031C71.8878 0.385365 73.0396 10.6623 72.7517 22.0628C72.6077 27.7135 72.1093 33.6505 71.6442 38.8055C71.5888 39.3563 71.5002 40.2815 71.3894 41.2949C74.712 40.5569 77.9127 39.9511 80.8808 39.4884C84.8491 38.8506 88.8566 38.4826 92.8752 38.3869C97.6929 38.3208 101.392 38.8936 103.629 40.1273C104.492 40.4984 105.195 41.1605 105.614 41.9968C106.034 42.8332 106.142 43.79 105.922 44.6985" fill="#43277E"/>
</g>
<defs>
<clipPath id="clip0_453_537">
<rect width="106" height="126" fill="white"/>
</clipPath>
</defs>
</svg>
