<svg width="190" height="88" viewBox="0 0 190 88" fill="none" xmlns="http://www.w3.org/2000/svg">
<path d="M13.4844 15.4531C14.25 16.7656 14.8789 18.0781 15.3711 19.3906C15.8633 20.6849 16.2917 21.9609 16.6562 23.2188C17.0391 24.4583 17.4036 25.6523 17.75 26.8008C18.0964 27.9492 18.4974 29.0156 18.9531 30C19.4089 30.9844 19.9648 31.8776 20.6211 32.6797C21.2773 33.4635 22.1068 34.1198 23.1094 34.6484C24.112 35.1771 25.3242 35.5599 26.7461 35.7969C27.6576 35.9427 28.6966 36.0156 29.8633 36.0156C30.5013 36.0156 31.1667 35.9974 31.8594 35.9609V44.0547C31.3854 44.0729 30.9297 44.082 30.4922 44.082C29.1797 44.082 27.9128 44.0182 26.6914 43.8906C25.4701 43.7448 24.3125 43.4076 23.2188 42.8789C22.1432 42.332 21.1862 41.5755 20.3477 40.6094C19.5273 39.6432 18.7435 38.3763 17.9961 36.8086C17.4128 37.7201 16.7109 38.5586 15.8906 39.3242C15.0885 40.0898 14.2318 40.7643 13.3203 41.3477C12.737 41.7122 12.1628 41.9492 11.5977 42.0586C11.2878 42.1315 10.987 42.168 10.6953 42.168C10.4219 42.168 10.0755 42.1315 9.65625 42.0586C9.23698 41.9674 8.73568 41.776 8.15234 41.4844C7.56901 41.1745 6.97656 40.7826 6.375 40.3086C5.26302 39.4518 4.50651 38.5768 4.10547 37.6836C3.79557 36.9909 3.64062 36.2982 3.64062 35.6055C3.64062 35.4049 3.66797 35.0404 3.72266 34.5117C3.79557 33.9831 4.08724 33.2812 4.59766 32.4062C5.10807 31.5312 5.71875 30.6654 6.42969 29.8086C7.14062 28.9518 7.90625 28.1224 8.72656 27.3203C9.54688 26.5 10.3034 25.7161 10.9961 24.9688L11.4609 24.5039C10.987 23.793 10.5039 23.1458 10.0117 22.5625C9.51953 21.9792 9.03646 21.4779 8.5625 21.0586L13.4844 15.4531ZM15.7539 36.8086C15.7904 36.444 15.8086 36.0794 15.8086 35.7148C15.8086 34.2201 15.5352 32.6706 14.9883 31.0664C14.4414 29.444 13.5755 27.7487 12.3906 25.9805L9.10938 28.8516C8.47135 29.4167 8.08854 30 7.96094 30.6016C7.90625 30.8385 7.87891 31.0755 7.87891 31.3125C7.87891 31.6771 7.97005 32.0964 8.15234 32.5703C8.33464 33.0443 8.6901 33.5547 9.21875 34.1016C9.7474 34.6302 10.3581 35.0951 11.0508 35.4961C11.7617 35.8971 12.5182 36.2161 13.3203 36.4531C14.1406 36.6901 14.9518 36.8086 15.7539 36.8086ZM26.1719 5.9375C25.3698 6.99479 24.5495 8.02474 23.7109 9.02734C22.8906 10.0117 22.0703 11.0326 21.25 12.0898C18.3151 11.5065 15.0885 11.069 11.5703 10.7773C8.07031 10.4857 4.30599 10.3216 0.277344 10.2852C1.13411 9.46484 1.97266 8.65365 2.79297 7.85156C3.61328 7.04948 4.46094 6.25651 5.33594 5.47266C8.38021 5.21745 11.224 5.08984 13.8672 5.08984C14.8516 5.08984 16.4193 5.13542 18.5703 5.22656C20.7396 5.29948 23.2734 5.53646 26.1719 5.9375ZM41.1016 16.5195C41.5391 17.2852 41.9492 18.2878 42.332 19.5273C42.7148 20.7669 43.0156 22.1341 43.2344 23.6289C43.4531 25.1055 43.5807 26.6549 43.6172 28.2773V28.6328C43.6172 30.1458 43.4987 31.6589 43.2617 33.1719C43.0247 34.6849 42.6146 36.1432 42.0312 37.5469C41.4661 38.9323 40.6914 40.1354 39.707 41.1562C38.7409 42.1589 37.5469 42.9245 36.125 43.4531C35.0495 43.8542 33.8372 44.0547 32.4883 44.0547C32.0143 44.0547 31.5312 44.0273 31.0391 43.9727V35.8516C31.3125 35.8516 31.6862 35.8516 32.1602 35.8516C32.6341 35.8333 33.1628 35.7878 33.7461 35.7148C34.3294 35.6237 34.931 35.4961 35.5508 35.332C36.1888 35.168 36.7812 34.931 37.3281 34.6211C37.8932 34.3112 38.3854 33.9193 38.8047 33.4453C39.224 32.9531 39.5247 32.3516 39.707 31.6406V31.3945C39.707 30.793 39.6432 30.1641 39.5156 29.5078C39.4062 28.8333 39.2331 28.1315 38.9961 27.4023C38.7773 26.6732 38.5221 25.9349 38.2305 25.1875C37.9388 24.4401 37.6471 23.6836 37.3555 22.918C37.9935 21.8607 38.6224 20.7943 39.2422 19.7188C39.862 18.6432 40.4818 17.5768 41.1016 16.5195ZM49.0586 51.3008C48.2565 52.3581 47.4362 53.3789 46.5977 54.3633C45.7773 55.3659 44.957 56.3958 44.1367 57.4531C41.2018 56.8698 37.9753 56.4323 34.457 56.1406C30.957 55.849 27.1927 55.6849 23.1641 55.6484C24.0208 54.8281 24.8594 54.0169 25.6797 53.2148C26.5 52.4128 27.3477 51.6198 28.2227 50.8359C31.2669 50.5807 34.1107 50.4531 36.7539 50.4531C37.7383 50.4531 39.306 50.4896 41.457 50.5625C43.6263 50.6536 46.1602 50.8997 49.0586 51.3008ZM58.8203 43.9727H58.2734C56.2135 43.9727 54.4635 43.2891 53.0234 41.9219C51.5833 40.5547 50.4987 38.3216 49.7695 35.2227C49.5872 34.5117 49.4049 33.4818 49.2227 32.1328C49.0586 30.7656 48.8945 29.2161 48.7305 27.4844C48.5846 25.7344 48.4479 23.875 48.3203 21.9062C48.2109 19.9193 48.1198 17.9596 48.0469 16.0273C47.974 14.0951 47.9284 12.2539 47.9102 10.5039C47.8919 9.62891 47.8828 8.81771 47.8828 8.07031C47.8828 7.32292 47.8919 6.63021 47.9102 5.99219C48.4206 5.08073 48.9219 4.16927 49.4141 3.25781C49.9245 2.32812 50.4349 1.38932 50.9453 0.441406C51.2005 2.0638 51.4375 3.88672 51.6562 5.91016C51.8932 7.91536 52.112 9.99349 52.3125 12.1445C52.513 14.2956 52.7044 16.4375 52.8867 18.5703C53.0872 20.6849 53.2786 22.6536 53.4609 24.4766C53.6615 26.2995 53.862 27.8945 54.0625 29.2617C54.263 30.6289 54.4727 31.6315 54.6914 32.2695C55.0742 33.418 55.5938 34.293 56.25 34.8945C56.9062 35.4961 57.763 35.8424 58.8203 35.9336V43.9727ZM136.066 43.9453C135.246 43.9453 134.526 43.8086 133.906 43.5352C133.286 43.2617 132.758 42.888 132.32 42.4141C131.883 41.9401 131.527 41.3932 131.254 40.7734C130.98 40.1536 130.789 39.4883 130.68 38.7773C128.346 39.3971 125.794 39.9531 123.023 40.4453C120.271 40.9375 117.382 41.375 114.355 41.7578C111.329 42.1224 108.194 42.4414 104.949 42.7148C101.704 42.9701 98.4141 43.1888 95.0781 43.3711C91.7604 43.5352 88.4245 43.6719 85.0703 43.7812C81.7344 43.8724 78.4622 43.9362 75.2539 43.9727C73.1029 43.9909 70.9883 44 68.9102 44C67.8893 44 66.3581 44 64.3164 44C62.293 44 59.9232 43.9818 57.207 43.9453L57.2891 35.9062C59.1667 35.9245 61.3906 35.9427 63.9609 35.9609C66.5312 35.9609 69.3203 35.9609 72.3281 35.9609C75.3177 35.9609 78.4531 35.9427 81.7344 35.9062C85.0339 35.8698 88.3516 35.8151 91.6875 35.7422C95.0417 35.6693 98.3503 35.5781 101.613 35.4688C104.876 35.3411 107.966 35.1953 110.883 35.0312C113.799 34.849 116.479 34.6393 118.922 34.4023C121.383 34.1471 123.47 33.8555 125.184 33.5273C126.915 33.1992 128.219 32.8255 129.094 32.4062C129.786 32.0781 130.133 31.7135 130.133 31.3125C130.133 31.2031 130.105 31.0938 130.051 30.9844C129.577 29.9453 128.656 29.1615 127.289 28.6328C125.94 28.0859 124.254 27.7122 122.23 27.5117C120.79 27.3841 119.214 27.3203 117.5 27.3203C116.826 27.3203 115.668 27.3477 114.027 27.4023C112.387 27.457 110.154 27.5846 107.328 27.7852C104.503 27.9857 101.595 28.2135 98.6055 28.4688C95.6341 28.7057 92.7083 28.8971 89.8281 29.043C87.513 29.1523 85.2617 29.207 83.0742 29.207C82.5273 29.207 81.4427 29.207 79.8203 29.207C78.2161 29.1888 76.3021 28.9974 74.0781 28.6328C71.8724 28.2682 69.9492 27.7031 68.3086 26.9375C66.668 26.1719 65.4375 25.1328 64.6172 23.8203C63.6146 22.3802 63.0221 21.0221 62.8398 19.7461C62.7852 19.3633 62.7578 18.9896 62.7578 18.625C62.7578 17.7682 62.9401 16.875 63.3047 15.9453C63.6875 14.9974 64.3711 14.0495 65.3555 13.1016C66.3398 12.1536 67.4974 11.2786 68.8281 10.4766C70.1771 9.65625 71.6536 8.90885 73.2578 8.23438C74.8802 7.54167 76.5299 6.91276 78.207 6.34766C79.9023 5.78255 81.5885 5.28125 83.2656 4.84375C84.9609 4.38802 86.5469 3.97786 88.0234 3.61328C89.5182 3.2487 90.8672 2.9388 92.0703 2.68359C93.2734 2.41016 94.2396 2.17318 94.9688 1.97266L89.0352 11.0234C88.8164 11.0781 88.3424 11.1966 87.6133 11.3789C86.9023 11.5612 86.0365 11.7891 85.0156 12.0625C83.9948 12.3177 82.8646 12.6185 81.625 12.9648C80.4036 13.293 79.1823 13.6393 77.9609 14.0039C76.7396 14.3685 75.5638 14.7422 74.4336 15.125C73.3034 15.5078 72.3281 15.8815 71.5078 16.2461C70.6875 16.5924 70.0677 16.9297 69.6484 17.2578C69.3568 17.4948 69.2109 17.7044 69.2109 17.8867C69.2109 17.9779 69.2383 18.0599 69.293 18.1328C69.9857 19.1172 70.9974 19.901 72.3281 20.4844C73.6771 21.0677 75.263 21.4961 77.0859 21.7695C78.9271 22.043 80.9688 22.1888 83.2109 22.207H84.7148C86.4831 22.207 88.4518 22.1615 90.6211 22.0703C92.8086 21.9609 95.1966 21.806 97.7852 21.6055C100.374 21.3867 102.944 21.1862 105.496 21.0039C108.048 20.8034 110.546 20.6393 112.988 20.5117C114.866 20.4206 116.661 20.375 118.375 20.375C118.867 20.375 119.76 20.3932 121.055 20.4297C122.349 20.4479 123.862 20.5938 125.594 20.8672C127.326 21.1406 128.784 21.5781 129.969 22.1797C131.883 23.1458 133.204 24.5951 133.934 26.5273C134.28 27.4388 134.453 28.4596 134.453 29.5898C134.453 30.8477 134.234 32.2513 133.797 33.8008C134.508 35.2044 135.264 35.9062 136.066 35.9062V43.9453ZM186.133 43.9727H135.055V35.9336H153.84C151.871 34.8763 150.003 33.7005 148.234 32.4062C146.466 31.112 144.835 29.6901 143.34 28.1406C141.863 26.5729 140.542 24.8867 139.375 23.082C138.227 21.2591 137.279 19.3086 136.531 17.2305C137.169 16.1732 137.789 15.1068 138.391 14.0312C139.01 12.9557 139.612 11.8893 140.195 10.832C140.76 12.6914 141.681 14.4688 142.957 16.1641C144.233 17.8594 145.773 19.4635 147.578 20.9766C149.401 22.4714 151.424 23.875 153.648 25.1875C155.891 26.4818 158.242 27.6758 160.703 28.7695C163.182 29.8451 165.716 30.8112 168.305 31.668C170.893 32.5065 173.445 33.2266 175.961 33.8281C178.477 34.4297 180.901 34.9036 183.234 35.25C185.586 35.5964 187.746 35.7969 189.715 35.8516L186.133 43.9727Z" fill="#304A2E"/>
<path d="M96.9375 68.1641C95.8984 68.1641 94.9779 68.0456 94.1758 67.8086C93.3737 67.5534 92.6536 67.2344 92.0156 66.8516C91.3958 66.4688 90.8398 66.0495 90.3477 65.5938C89.8555 65.138 89.3997 64.7005 88.9805 64.2812C88.543 67.7995 87.7682 70.8893 86.6562 73.5508C85.5625 76.2122 84.2318 78.4635 82.6641 80.3047C81.0964 82.1641 79.3464 83.6406 77.4141 84.7344C75.5 85.8281 73.513 86.5664 71.4531 86.9492C70.25 87.168 69.0286 87.2773 67.7891 87.2773C66.9141 87.2773 65.7292 87.1771 64.2344 86.9766C62.7396 86.7943 61.0078 86.2656 59.0391 85.3906C57.0885 84.5156 55.2656 83.3581 53.5703 81.918C51.8932 80.4961 50.444 78.819 49.2227 76.8867C48.0195 74.9544 47.099 72.7943 46.4609 70.4062C45.9323 68.4557 45.668 66.3685 45.668 64.1445C45.668 63.6523 45.6771 63.151 45.6953 62.6406C45.7318 62.5312 45.8138 62.3125 45.9414 61.9844C46.0872 61.6562 46.2513 61.2826 46.4336 60.8633C46.6159 60.4258 46.8073 59.9701 47.0078 59.4961C47.2266 59.0039 47.4271 58.5664 47.6094 58.1836C47.7917 57.7826 47.9466 57.4544 48.0742 57.1992C48.2201 56.9258 48.3112 56.7891 48.3477 56.7891C48.3112 57.3542 48.293 57.901 48.293 58.4297C48.293 60.5807 48.612 62.7044 49.25 64.8008C49.9062 66.8971 50.8997 68.8477 52.2305 70.6523C53.5794 72.457 55.1562 73.9883 56.9609 75.2461C58.7839 76.5039 60.6979 77.4518 62.7031 78.0898C64.7083 78.7461 66.75 79.0742 68.8281 79.0742H68.9922C70.9974 79.0742 72.9023 78.737 74.707 78.0625C76.5299 77.388 78.1797 76.3398 79.6562 74.918C81.1328 73.5143 82.2812 71.7188 83.1016 69.5312C83.9401 67.3438 84.3867 64.7552 84.4414 61.7656V61.4648C84.4414 58.5482 83.9492 55.2214 82.9648 51.4844C83.6029 50.4271 84.2135 49.3607 84.7969 48.2852C85.3802 47.2096 85.9909 46.1432 86.6289 45.0859C86.6289 45.9974 86.7201 47 86.9023 48.0938C87.1029 49.1875 87.3945 50.2904 87.7773 51.4023C88.1784 52.4961 88.6615 53.5625 89.2266 54.6016C89.8099 55.6224 90.4753 56.5339 91.2227 57.3359C91.9883 58.138 92.8451 58.7852 93.793 59.2773C94.7591 59.7513 95.8073 59.9883 96.9375 59.9883V68.1641ZM71.4258 60.6172C71.6628 60.763 71.8451 60.9818 71.9727 61.2734C72.1185 61.5651 72.2096 61.875 72.2461 62.2031V62.4492C72.2461 62.6862 72.2188 62.9414 72.1641 63.2148C72.1094 63.4883 71.9909 63.7344 71.8086 63.9531L68.8555 68.082L61.9102 62.8594L65.6562 56.9531L71.4258 60.6172ZM111.293 52.9336C112.77 52.2409 114.283 51.5482 115.832 50.8555C117.382 50.1628 118.922 49.5065 120.453 48.8867C121.984 48.2669 123.488 47.7018 124.965 47.1914C126.441 46.6628 127.854 46.2253 129.203 45.8789C130.57 45.5326 131.855 45.2865 133.059 45.1406C133.697 45.0677 134.298 45.0312 134.863 45.0312C135.355 45.0312 135.82 45.0586 136.258 45.1133C137.68 45.2956 138.928 45.7604 140.004 46.5078C141.079 47.237 141.936 48.1484 142.574 49.2422C143.23 50.3359 143.65 51.5482 143.832 52.8789C143.887 53.3346 143.914 53.7904 143.914 54.2461C143.914 55.1393 143.805 56.0234 143.586 56.8984C143.13 58.612 142.264 60.0885 140.988 61.3281C139.712 62.5495 138.154 63.5885 136.312 64.4453C134.49 65.2839 132.439 65.9583 130.16 66.4688C127.882 66.9792 125.503 67.3711 123.023 67.6445C120.544 67.8997 118.038 68.0638 115.504 68.1367C113.371 68.2096 111.311 68.2461 109.324 68.2461C108.923 68.2461 108.03 68.237 106.645 68.2188C105.259 68.2188 103.527 68.1914 101.449 68.1367C99.3893 68.082 97.6029 68.0547 96.0898 68.0547L96.1719 60.0977C98.1953 60.0977 99.8997 59.8607 101.285 59.3867C102.671 58.9128 103.801 58.2565 104.676 57.418C105.551 56.5794 106.198 55.5859 106.617 54.4375C107.036 53.2708 107.301 52.013 107.41 50.6641C107.465 50.0807 107.492 49.4883 107.492 48.8867C107.492 48.0846 107.428 47.1003 107.301 45.9336C107.191 44.7487 107 43.3906 106.727 41.8594C106.471 40.3281 106.18 38.806 105.852 37.293C105.523 35.7799 105.232 34.3307 104.977 32.9453C105.651 31.6875 106.326 30.4479 107 29.2266C107.674 27.987 108.322 26.7383 108.941 25.4805C109.798 30.6576 110.445 35.5065 110.883 40.0273C111.193 43.3997 111.348 46.6354 111.348 49.7344C111.348 50.8099 111.329 51.8763 111.293 52.9336ZM108.23 59.9062C108.249 59.8698 108.44 59.8516 108.805 59.8516C108.932 59.8516 109.197 59.8607 109.598 59.8789C109.999 59.8789 110.737 59.8971 111.812 59.9336C112.906 59.9701 114.164 60.0156 115.586 60.0703C117.026 60.125 118.539 60.1523 120.125 60.1523H121.082C122.358 60.1523 123.743 60.125 125.238 60.0703C126.733 60.0156 128.246 59.9062 129.777 59.7422C131.327 59.5781 132.767 59.3503 134.098 59.0586C135.428 58.7487 136.559 58.3568 137.488 57.8828C138.436 57.3906 139.138 56.7982 139.594 56.1055C139.904 55.6497 140.059 55.1393 140.059 54.5742C140.059 54.3008 140.022 54.0091 139.949 53.6992C139.129 52.9701 138.135 52.4688 136.969 52.1953C136.039 51.9948 135.055 51.8945 134.016 51.8945C133.724 51.8945 133.15 51.9219 132.293 51.9766C131.454 52.013 130.26 52.2044 128.711 52.5508C127.18 52.8971 125.63 53.3255 124.062 53.8359C122.495 54.3281 120.936 54.875 119.387 55.4766C117.855 56.0599 116.397 56.6432 115.012 57.2266C113.626 57.7917 112.35 58.3112 111.184 58.7852C110.035 59.2591 109.051 59.6328 108.23 59.9062ZM153.32 51.3203C154.177 51.3203 154.997 51.6576 155.781 52.332C156.583 53.0065 157.303 53.9089 157.941 55.0391C158.579 56.151 159.108 57.4362 159.527 58.8945C159.965 60.3529 160.257 61.8659 160.402 63.4336C160.439 63.9622 160.457 64.4818 160.457 64.9922C160.457 66.3411 160.293 67.7539 159.965 69.2305C159.637 70.7253 159.072 72.2292 158.27 73.7422C157.467 75.2734 156.483 76.6953 155.316 78.0078C154.168 79.3385 152.892 80.5599 151.488 81.6719C150.085 82.8021 148.599 83.8229 147.031 84.7344C145.464 85.6458 143.868 86.4479 142.246 87.1406L134.59 79.6484C135.574 79.9766 136.659 80.1406 137.844 80.1406C138.135 80.1406 138.746 80.1042 139.676 80.0312C140.605 79.9766 141.872 79.694 143.477 79.1836C145.062 78.6732 146.621 77.9896 148.152 77.1328C149.684 76.2943 151.078 75.3555 152.336 74.3164C153.612 73.2773 154.678 72.1745 155.535 71.0078C156.392 69.8594 156.948 68.7109 157.203 67.5625V67.5352C157.203 67.4805 157.176 67.4531 157.121 67.4531C157.048 67.4531 156.911 67.4896 156.711 67.5625C156.51 67.6172 156.164 67.7266 155.672 67.8906C155.198 68.0365 154.651 68.1732 154.031 68.3008C153.539 68.4102 153.029 68.4648 152.5 68.4648C152.372 68.4648 152.108 68.4557 151.707 68.4375C151.324 68.4193 150.814 68.2734 150.176 68C149.556 67.7266 148.991 67.2526 148.48 66.5781C147.988 65.8854 147.587 64.9557 147.277 63.7891C146.986 62.6224 146.84 61.1458 146.84 59.3594C146.84 58.1927 146.986 57.1172 147.277 56.1328C147.569 55.1484 147.988 54.3008 148.535 53.5898C149.1 52.8789 149.784 52.3229 150.586 51.9219C151.388 51.5208 152.299 51.3203 153.32 51.3203Z" fill="#768A1B"/>
</svg>
