<svg xmlns="http://www.w3.org/2000/svg" viewBox="0 0 46.35 132.47"><defs><style>.cls-1,.cls-2,.cls-3{font-size:15.13px;}.cls-1,.cls-2,.cls-3,.cls-4{fill:#482683;}.cls-1{font-family:ithra-light, ithra;font-weight:300;}.cls-2{font-family:MyriadPro-Regular, Myriad Pro;}.cls-3{font-family:ithra-bold, ithra;font-weight:700;}</style></defs><g id="Layer_2" data-name="Layer 2"><g id="Layer_1-2" data-name="Layer 1"><text class="cls-1" transform="translate(10.59 0) rotate(90)">Ithra </text><text class="cls-2" transform="translate(10.59 32.35) rotate(90)">|</text><text class="cls-3" transform="translate(10.59 35.97) rotate(90)"><tspan xml:space="preserve"> Celebrations</tspan></text><path class="cls-4" d="M31.17,72.6a.65.65,0,1,1,.66-.65A.66.66,0,0,1,31.17,72.6Zm10.77-5.37V68H30.85v-.78ZM30.85,83.13v-.79H41.94v.79Zm1.9-11.45A.66.66,0,0,1,32.1,71a.66.66,0,1,1,.65.65Zm0,1.84a.66.66,0,0,1,0-1.31.66.66,0,0,1,.67.66A.65.65,0,0,1,32.75,73.52Zm9.16,1.14h-.69l0-.3V73.11c0-1.06-.37-1.22-1.11-1.22h-5v-.77h5c1.29,0,1.89.39,1.89,1.95v1.29Zm-.57-.61h.45l.15.3v2c2.15,0,3.21.93,3.21,2.88a5.39,5.39,0,0,1-.33,1.86H44a5.05,5.05,0,0,0,.35-1.68c0-1.48-.61-2.29-2.48-2.29H35.33v-.77h5.86v-2Zm-.15,11.27h.75V91h-.75V89.09a2.37,2.37,0,0,1-1.68.62A2.46,2.46,0,0,1,37,87a5.13,5.13,0,0,1,.15-1.39h.77A5.91,5.91,0,0,0,37.72,87a1.69,1.69,0,0,0,1.79,1.92,1.54,1.54,0,0,0,1.68-1.5Zm3.48-17a1.11,1.11,0,0,0,1.1-1.09V66.18h.58V69.7h-.58V68.45a1.47,1.47,0,0,1-1.21.5c-1,0-1.56-.56-1.56-1.69a9.8,9.8,0,0,1,.08-1.08h.53c0,.34-.06.73-.06,1.08A1,1,0,0,0,44.67,68.35Z"/><text class="cls-2" transform="translate(41.94 61.89) rotate(-90)">|</text><path class="cls-4" d="M31.62,23.59a1.22,1.22,0,1,1,1.2-1.2A1.21,1.21,0,0,1,31.62,23.59ZM30.54,3.19V1.05l11.4,0V3.2ZM40,30H30.54V27.9h8.27c.71,0,1-.08,1-.91l0-.3h2l0,.3v.73C41.94,29,41.28,30,40,30Zm-9.45,2.15H40c1.29,0,1.95,1.06,1.95,2.32v7.14h-2.1V38.73H32.38V36.6h7.46V35.24c0-.84-.32-.93-1-.93H30.54Zm1.52-17.52a1.22,1.22,0,0,1-1.21-1.23,1.18,1.18,0,0,1,1.21-1.19,1.2,1.2,0,0,1,1.22,1.21A1.22,1.22,0,0,1,32.06,14.66Zm0,2.81a1.22,1.22,0,0,1,0-2.43,1.23,1.23,0,0,1,1.22,1.24A1.2,1.2,0,0,1,32.06,17.47ZM33.22,48A1.23,1.23,0,0,1,32,46.81a1.19,1.19,0,0,1,1.21-1.19,1.21,1.21,0,0,1,1.23,1.21A1.22,1.22,0,0,1,33.22,48Zm0,2.81a1.22,1.22,0,0,1,0-2.43,1.23,1.23,0,0,1,1.23,1.24A1.2,1.2,0,0,1,33.22,50.85ZM40,17.41h1.8l.15.3V27l-.15.3H40l-.15-.3V25.28a2.68,2.68,0,0,1-2.21.88c-2.12,0-3.35-1.62-3.35-3.78s1.23-3.74,3.35-3.74a2.73,2.73,0,0,1,2.21.84V17.71ZM38.23,5.47h3.71V12l-.15.3H40l-.15-.3V7.61H38.23a1.59,1.59,0,0,0-1.81,1.8,10.19,10.19,0,0,0,.32,2.3H34.65a10,10,0,0,1-.34-2.3C34.31,6.82,35.77,5.47,38.23,5.47ZM40,11.69h1.8l.15.3v5.73l-.15.3H40l-.15-.3V15.91H34.75V13.78h5.09V12ZM38.22,54.06a10,10,0,0,1-2.3-.34V51.61a8.7,8.7,0,0,0,2.15.3,1.63,1.63,0,0,0,1.77-1.86V45.66c0-.78-.32-.91-.88-.91H34.75V42.62H40c1.29,0,1.95,1.09,1.95,2.35l0,5.22A3.58,3.58,0,0,1,38.22,54.06Zm1.62-31.68a2.14,2.14,0,0,0-2-1.59c-1,0-1.45.56-1.45,1.59S36.87,24,37.84,24A2.17,2.17,0,0,0,39.84,22.38Z"/></g></g></svg>